<mxfile host="Electron" modified="2023-04-27T16:17:36.037Z" agent="Mozilla/5.0 (Windows NT 10.0; Win64; x64) AppleWebKit/537.36 (KHTML, like Gecko) draw.io/21.1.2 Chrome/106.0.5249.199 Electron/21.4.3 Safari/537.36" etag="4yTD0mthmxDgyg51QXIA" version="21.1.2" type="device">
  <diagram name="Sayfa -1" id="_gTyop6eaWAqHrsYtsdc">
    <mxGraphModel dx="792" dy="1230" grid="1" gridSize="8" guides="1" tooltips="1" connect="1" arrows="1" fold="1" page="1" pageScale="1" pageWidth="1200" pageHeight="1920" math="0" shadow="0">
      <root>
        <mxCell id="0" />
        <mxCell id="1" parent="0" />
        <mxCell id="d0pMD3VuDM7gUj6FSm_V-156" style="edgeStyle=orthogonalEdgeStyle;rounded=0;orthogonalLoop=1;jettySize=auto;html=1;exitX=1;exitY=0.5;exitDx=0;exitDy=0;entryX=0;entryY=0.5;entryDx=0;entryDy=0;" parent="1" source="d0pMD3VuDM7gUj6FSm_V-1" target="d0pMD3VuDM7gUj6FSm_V-134" edge="1">
          <mxGeometry relative="1" as="geometry" />
        </mxCell>
        <mxCell id="d0pMD3VuDM7gUj6FSm_V-1" value="0" style="whiteSpace=wrap;html=1;aspect=fixed;" parent="1" vertex="1">
          <mxGeometry x="88" y="288" width="32" height="32" as="geometry" />
        </mxCell>
        <mxCell id="d0pMD3VuDM7gUj6FSm_V-163" style="edgeStyle=orthogonalEdgeStyle;rounded=0;orthogonalLoop=1;jettySize=auto;html=1;exitX=1;exitY=0.5;exitDx=0;exitDy=0;entryX=0;entryY=0.5;entryDx=0;entryDy=0;" parent="1" source="d0pMD3VuDM7gUj6FSm_V-134" target="d0pMD3VuDM7gUj6FSm_V-135" edge="1">
          <mxGeometry relative="1" as="geometry" />
        </mxCell>
        <mxCell id="d0pMD3VuDM7gUj6FSm_V-134" value="1&lt;br&gt;(2,12)" style="whiteSpace=wrap;html=1;aspect=fixed;fillColor=#ffe6cc;strokeColor=#d79b00;" parent="1" vertex="1">
          <mxGeometry x="144" y="288" width="32" height="32" as="geometry" />
        </mxCell>
        <mxCell id="d0pMD3VuDM7gUj6FSm_V-171" style="edgeStyle=none;rounded=0;orthogonalLoop=1;jettySize=auto;html=1;exitX=1;exitY=0.75;exitDx=0;exitDy=0;entryX=0;entryY=0.5;entryDx=0;entryDy=0;" parent="1" source="d0pMD3VuDM7gUj6FSm_V-135" target="d0pMD3VuDM7gUj6FSm_V-164" edge="1">
          <mxGeometry relative="1" as="geometry" />
        </mxCell>
        <mxCell id="d0pMD3VuDM7gUj6FSm_V-172" style="edgeStyle=none;rounded=0;orthogonalLoop=1;jettySize=auto;html=1;exitX=1;exitY=0.5;exitDx=0;exitDy=0;entryX=0;entryY=0.5;entryDx=0;entryDy=0;" parent="1" source="d0pMD3VuDM7gUj6FSm_V-135" target="d0pMD3VuDM7gUj6FSm_V-136" edge="1">
          <mxGeometry relative="1" as="geometry" />
        </mxCell>
        <mxCell id="d0pMD3VuDM7gUj6FSm_V-135" value="2&lt;br&gt;(3,88)" style="whiteSpace=wrap;html=1;aspect=fixed;fillColor=#ffe6cc;strokeColor=#d79b00;" parent="1" vertex="1">
          <mxGeometry x="200" y="288" width="32" height="32" as="geometry" />
        </mxCell>
        <mxCell id="d0pMD3VuDM7gUj6FSm_V-136" value="3&lt;br&gt;(20,43)" style="whiteSpace=wrap;html=1;aspect=fixed;fillColor=#ffe6cc;strokeColor=#d79b00;" parent="1" vertex="1">
          <mxGeometry x="264" y="248" width="32" height="32" as="geometry" />
        </mxCell>
        <mxCell id="d0pMD3VuDM7gUj6FSm_V-175" style="edgeStyle=none;rounded=0;orthogonalLoop=1;jettySize=auto;html=1;exitX=1;exitY=0.5;exitDx=0;exitDy=0;entryX=0;entryY=0.5;entryDx=0;entryDy=0;" parent="1" source="d0pMD3VuDM7gUj6FSm_V-139" target="d0pMD3VuDM7gUj6FSm_V-141" edge="1">
          <mxGeometry relative="1" as="geometry" />
        </mxCell>
        <mxCell id="d0pMD3VuDM7gUj6FSm_V-139" value="6&lt;br&gt;(4,17)" style="whiteSpace=wrap;html=1;aspect=fixed;fillColor=#f8cecc;strokeColor=#b85450;" parent="1" vertex="1">
          <mxGeometry x="376" y="288" width="32" height="32" as="geometry" />
        </mxCell>
        <mxCell id="d0pMD3VuDM7gUj6FSm_V-176" style="edgeStyle=none;rounded=0;orthogonalLoop=1;jettySize=auto;html=1;exitX=1;exitY=0.5;exitDx=0;exitDy=0;entryX=0;entryY=0.5;entryDx=0;entryDy=0;" parent="1" source="d0pMD3VuDM7gUj6FSm_V-141" target="d0pMD3VuDM7gUj6FSm_V-142" edge="1">
          <mxGeometry relative="1" as="geometry" />
        </mxCell>
        <mxCell id="d0pMD3VuDM7gUj6FSm_V-177" style="edgeStyle=none;rounded=0;orthogonalLoop=1;jettySize=auto;html=1;exitX=1;exitY=0.5;exitDx=0;exitDy=0;entryX=0;entryY=0.5;entryDx=0;entryDy=0;" parent="1" source="d0pMD3VuDM7gUj6FSm_V-141" target="d0pMD3VuDM7gUj6FSm_V-143" edge="1">
          <mxGeometry relative="1" as="geometry" />
        </mxCell>
        <mxCell id="d0pMD3VuDM7gUj6FSm_V-141" value="7&lt;br&gt;(3,12)" style="whiteSpace=wrap;html=1;aspect=fixed;fillColor=#f8cecc;strokeColor=#b85450;" parent="1" vertex="1">
          <mxGeometry x="432" y="288" width="32" height="32" as="geometry" />
        </mxCell>
        <mxCell id="d0pMD3VuDM7gUj6FSm_V-142" value="8&lt;br&gt;(3,88)" style="whiteSpace=wrap;html=1;aspect=fixed;fillColor=#f8cecc;strokeColor=#b85450;" parent="1" vertex="1">
          <mxGeometry x="488" y="256" width="32" height="32" as="geometry" />
        </mxCell>
        <mxCell id="d0pMD3VuDM7gUj6FSm_V-178" style="edgeStyle=none;rounded=0;orthogonalLoop=1;jettySize=auto;html=1;exitX=1;exitY=0.5;exitDx=0;exitDy=0;entryX=0;entryY=0.5;entryDx=0;entryDy=0;" parent="1" source="d0pMD3VuDM7gUj6FSm_V-143" target="d0pMD3VuDM7gUj6FSm_V-145" edge="1">
          <mxGeometry relative="1" as="geometry" />
        </mxCell>
        <mxCell id="d0pMD3VuDM7gUj6FSm_V-143" value="9&lt;br&gt;(6,05)" style="whiteSpace=wrap;html=1;aspect=fixed;fillColor=#f8cecc;strokeColor=#b85450;" parent="1" vertex="1">
          <mxGeometry x="488" y="320" width="32" height="32" as="geometry" />
        </mxCell>
        <mxCell id="d0pMD3VuDM7gUj6FSm_V-180" style="edgeStyle=none;rounded=0;orthogonalLoop=1;jettySize=auto;html=1;exitX=1;exitY=0.5;exitDx=0;exitDy=0;entryX=0;entryY=0.5;entryDx=0;entryDy=0;" parent="1" source="d0pMD3VuDM7gUj6FSm_V-144" target="d0pMD3VuDM7gUj6FSm_V-147" edge="1">
          <mxGeometry relative="1" as="geometry" />
        </mxCell>
        <mxCell id="d0pMD3VuDM7gUj6FSm_V-144" value="11&lt;br&gt;(5,13)" style="whiteSpace=wrap;html=1;aspect=fixed;fillColor=#dae8fc;strokeColor=#6c8ebf;" parent="1" vertex="1">
          <mxGeometry x="608" y="288" width="32" height="32" as="geometry" />
        </mxCell>
        <mxCell id="d0pMD3VuDM7gUj6FSm_V-179" style="edgeStyle=none;rounded=0;orthogonalLoop=1;jettySize=auto;html=1;exitX=1;exitY=0.5;exitDx=0;exitDy=0;entryX=0;entryY=0.5;entryDx=0;entryDy=0;" parent="1" source="d0pMD3VuDM7gUj6FSm_V-145" target="d0pMD3VuDM7gUj6FSm_V-144" edge="1">
          <mxGeometry relative="1" as="geometry" />
        </mxCell>
        <mxCell id="d0pMD3VuDM7gUj6FSm_V-145" value="10&lt;br&gt;(3,12)" style="whiteSpace=wrap;html=1;aspect=fixed;fillColor=#dae8fc;strokeColor=#6c8ebf;" parent="1" vertex="1">
          <mxGeometry x="552" y="288" width="32" height="32" as="geometry" />
        </mxCell>
        <mxCell id="d0pMD3VuDM7gUj6FSm_V-181" style="edgeStyle=none;rounded=0;orthogonalLoop=1;jettySize=auto;html=1;exitX=1;exitY=0.5;exitDx=0;exitDy=0;entryX=0;entryY=0.5;entryDx=0;entryDy=0;" parent="1" source="d0pMD3VuDM7gUj6FSm_V-147" target="d0pMD3VuDM7gUj6FSm_V-148" edge="1">
          <mxGeometry relative="1" as="geometry" />
        </mxCell>
        <mxCell id="d0pMD3VuDM7gUj6FSm_V-182" style="edgeStyle=none;rounded=0;orthogonalLoop=1;jettySize=auto;html=1;exitX=1;exitY=0.5;exitDx=0;exitDy=0;entryX=0;entryY=0.5;entryDx=0;entryDy=0;" parent="1" source="d0pMD3VuDM7gUj6FSm_V-147" target="d0pMD3VuDM7gUj6FSm_V-151" edge="1">
          <mxGeometry relative="1" as="geometry" />
        </mxCell>
        <mxCell id="d0pMD3VuDM7gUj6FSm_V-183" style="edgeStyle=none;rounded=0;orthogonalLoop=1;jettySize=auto;html=1;exitX=1;exitY=0.5;exitDx=0;exitDy=0;entryX=0;entryY=0.5;entryDx=0;entryDy=0;" parent="1" source="d0pMD3VuDM7gUj6FSm_V-147" target="d0pMD3VuDM7gUj6FSm_V-153" edge="1">
          <mxGeometry relative="1" as="geometry" />
        </mxCell>
        <mxCell id="d0pMD3VuDM7gUj6FSm_V-147" value="12&lt;br&gt;(6,82)" style="whiteSpace=wrap;html=1;aspect=fixed;fillColor=#dae8fc;strokeColor=#6c8ebf;" parent="1" vertex="1">
          <mxGeometry x="664" y="288" width="32" height="32" as="geometry" />
        </mxCell>
        <mxCell id="d0pMD3VuDM7gUj6FSm_V-148" value="13&lt;br&gt;(2,10)" style="whiteSpace=wrap;html=1;aspect=fixed;fillColor=#d5e8d4;strokeColor=#82b366;" parent="1" vertex="1">
          <mxGeometry x="640" y="224" width="32" height="32" as="geometry" />
        </mxCell>
        <mxCell id="d0pMD3VuDM7gUj6FSm_V-185" style="edgeStyle=none;rounded=0;orthogonalLoop=1;jettySize=auto;html=1;exitX=1;exitY=0.5;exitDx=0;exitDy=0;entryX=0;entryY=0.5;entryDx=0;entryDy=0;" parent="1" source="d0pMD3VuDM7gUj6FSm_V-149" target="d0pMD3VuDM7gUj6FSm_V-150" edge="1">
          <mxGeometry relative="1" as="geometry" />
        </mxCell>
        <mxCell id="d0pMD3VuDM7gUj6FSm_V-149" value="16&lt;br&gt;(3,13)" style="whiteSpace=wrap;html=1;aspect=fixed;fillColor=#d5e8d4;strokeColor=#82b366;" parent="1" vertex="1">
          <mxGeometry x="792" y="288" width="32" height="32" as="geometry" />
        </mxCell>
        <mxCell id="d0pMD3VuDM7gUj6FSm_V-150" value="17&lt;br&gt;(2,23)" style="whiteSpace=wrap;html=1;aspect=fixed;fillColor=#d5e8d4;strokeColor=#82b366;" parent="1" vertex="1">
          <mxGeometry x="856" y="288" width="32" height="32" as="geometry" />
        </mxCell>
        <mxCell id="d0pMD3VuDM7gUj6FSm_V-151" value="14&lt;br&gt;(2,07)" style="whiteSpace=wrap;html=1;aspect=fixed;fillColor=#d5e8d4;strokeColor=#82b366;" parent="1" vertex="1">
          <mxGeometry x="728" y="288" width="32" height="32" as="geometry" />
        </mxCell>
        <mxCell id="d0pMD3VuDM7gUj6FSm_V-184" style="edgeStyle=none;rounded=0;orthogonalLoop=1;jettySize=auto;html=1;exitX=1;exitY=0.5;exitDx=0;exitDy=0;entryX=0;entryY=0.5;entryDx=0;entryDy=0;" parent="1" source="d0pMD3VuDM7gUj6FSm_V-153" target="d0pMD3VuDM7gUj6FSm_V-149" edge="1">
          <mxGeometry relative="1" as="geometry" />
        </mxCell>
        <mxCell id="d0pMD3VuDM7gUj6FSm_V-153" value="15&lt;br&gt;(4,10)" style="whiteSpace=wrap;html=1;aspect=fixed;fillColor=#d5e8d4;strokeColor=#82b366;" parent="1" vertex="1">
          <mxGeometry x="640" y="352" width="32" height="32" as="geometry" />
        </mxCell>
        <mxCell id="d0pMD3VuDM7gUj6FSm_V-173" style="edgeStyle=none;rounded=0;orthogonalLoop=1;jettySize=auto;html=1;exitX=1;exitY=0.5;exitDx=0;exitDy=0;entryX=0;entryY=0.5;entryDx=0;entryDy=0;" parent="1" source="d0pMD3VuDM7gUj6FSm_V-164" target="d0pMD3VuDM7gUj6FSm_V-166" edge="1">
          <mxGeometry relative="1" as="geometry" />
        </mxCell>
        <mxCell id="d0pMD3VuDM7gUj6FSm_V-164" value="4&lt;br&gt;(14,43)" style="whiteSpace=wrap;html=1;aspect=fixed;fillColor=#ffe6cc;strokeColor=#d79b00;" parent="1" vertex="1">
          <mxGeometry x="264" y="312" width="32" height="32" as="geometry" />
        </mxCell>
        <mxCell id="d0pMD3VuDM7gUj6FSm_V-174" style="edgeStyle=none;rounded=0;orthogonalLoop=1;jettySize=auto;html=1;exitX=1;exitY=0.5;exitDx=0;exitDy=0;entryX=0;entryY=0.5;entryDx=0;entryDy=0;" parent="1" source="d0pMD3VuDM7gUj6FSm_V-166" target="d0pMD3VuDM7gUj6FSm_V-139" edge="1">
          <mxGeometry relative="1" as="geometry" />
        </mxCell>
        <mxCell id="d0pMD3VuDM7gUj6FSm_V-166" value="5&lt;br&gt;(3,07)" style="whiteSpace=wrap;html=1;aspect=fixed;fillColor=#f8cecc;strokeColor=#b85450;" parent="1" vertex="1">
          <mxGeometry x="320" y="288" width="32" height="32" as="geometry" />
        </mxCell>
        <mxCell id="bswY6wHI30ojpIG-sKG3-26" value="=" style="whiteSpace=wrap;html=1;aspect=fixed;fillColor=#e1d5e7;strokeColor=#9673a6;fillStyle=auto;dashed=1;rounded=0;glass=0;" parent="1" vertex="1">
          <mxGeometry x="880" y="480" width="32" height="32" as="geometry" />
        </mxCell>
        <mxCell id="bswY6wHI30ojpIG-sKG3-29" value="61,37" style="whiteSpace=wrap;html=1;aspect=fixed;fillColor=#fff2cc;strokeColor=#d6b656;fillStyle=auto;dashed=1;rounded=0;glass=0;" parent="1" vertex="1">
          <mxGeometry x="928" y="480" width="32" height="32" as="geometry" />
        </mxCell>
        <mxCell id="bswY6wHI30ojpIG-sKG3-30" value="1&lt;br&gt;(2,12)" style="whiteSpace=wrap;html=1;aspect=fixed;fillColor=#ffe6cc;strokeColor=#d79b00;" parent="1" vertex="1">
          <mxGeometry x="64" y="480" width="32" height="32" as="geometry" />
        </mxCell>
        <mxCell id="bswY6wHI30ojpIG-sKG3-31" value="2&lt;br&gt;(3,88)" style="whiteSpace=wrap;html=1;aspect=fixed;fillColor=#ffe6cc;strokeColor=#d79b00;" parent="1" vertex="1">
          <mxGeometry x="128" y="480" width="32" height="32" as="geometry" />
        </mxCell>
        <mxCell id="bswY6wHI30ojpIG-sKG3-32" value="4&lt;br&gt;(14,43)" style="whiteSpace=wrap;html=1;aspect=fixed;fillColor=#ffe6cc;strokeColor=#d79b00;" parent="1" vertex="1">
          <mxGeometry x="192" y="480" width="32" height="32" as="geometry" />
        </mxCell>
        <mxCell id="bswY6wHI30ojpIG-sKG3-33" value="5&lt;br&gt;(3,07)" style="whiteSpace=wrap;html=1;aspect=fixed;fillColor=#f8cecc;strokeColor=#b85450;" parent="1" vertex="1">
          <mxGeometry x="256" y="480" width="32" height="32" as="geometry" />
        </mxCell>
        <mxCell id="bswY6wHI30ojpIG-sKG3-34" value="6&lt;br&gt;(4,17)" style="whiteSpace=wrap;html=1;aspect=fixed;fillColor=#f8cecc;strokeColor=#b85450;" parent="1" vertex="1">
          <mxGeometry x="320" y="480" width="32" height="32" as="geometry" />
        </mxCell>
        <mxCell id="bswY6wHI30ojpIG-sKG3-35" value="7&lt;br&gt;(3,12)" style="whiteSpace=wrap;html=1;aspect=fixed;fillColor=#f8cecc;strokeColor=#b85450;" parent="1" vertex="1">
          <mxGeometry x="384" y="480" width="32" height="32" as="geometry" />
        </mxCell>
        <mxCell id="bswY6wHI30ojpIG-sKG3-36" value="9&lt;br&gt;(6,05)" style="whiteSpace=wrap;html=1;aspect=fixed;fillColor=#f8cecc;strokeColor=#b85450;" parent="1" vertex="1">
          <mxGeometry x="448" y="480" width="32" height="32" as="geometry" />
        </mxCell>
        <mxCell id="bswY6wHI30ojpIG-sKG3-37" value="10&lt;br&gt;(3,12)" style="whiteSpace=wrap;html=1;aspect=fixed;fillColor=#dae8fc;strokeColor=#6c8ebf;" parent="1" vertex="1">
          <mxGeometry x="512" y="480" width="32" height="32" as="geometry" />
        </mxCell>
        <mxCell id="bswY6wHI30ojpIG-sKG3-38" value="11&lt;br&gt;(5,13)" style="whiteSpace=wrap;html=1;aspect=fixed;fillColor=#dae8fc;strokeColor=#6c8ebf;" parent="1" vertex="1">
          <mxGeometry x="576" y="480" width="32" height="32" as="geometry" />
        </mxCell>
        <mxCell id="bswY6wHI30ojpIG-sKG3-39" value="12&lt;br&gt;(6,82)" style="whiteSpace=wrap;html=1;aspect=fixed;fillColor=#dae8fc;strokeColor=#6c8ebf;" parent="1" vertex="1">
          <mxGeometry x="640" y="480" width="32" height="32" as="geometry" />
        </mxCell>
        <mxCell id="bswY6wHI30ojpIG-sKG3-40" value="15&lt;br&gt;(4,10)" style="whiteSpace=wrap;html=1;aspect=fixed;fillColor=#d5e8d4;strokeColor=#82b366;" parent="1" vertex="1">
          <mxGeometry x="704" y="480" width="32" height="32" as="geometry" />
        </mxCell>
        <mxCell id="bswY6wHI30ojpIG-sKG3-41" value="16&lt;br&gt;(3,13)" style="whiteSpace=wrap;html=1;aspect=fixed;fillColor=#d5e8d4;strokeColor=#82b366;" parent="1" vertex="1">
          <mxGeometry x="768" y="480" width="32" height="32" as="geometry" />
        </mxCell>
        <mxCell id="bswY6wHI30ojpIG-sKG3-42" value="17&lt;br&gt;(2,23)" style="whiteSpace=wrap;html=1;aspect=fixed;fillColor=#d5e8d4;strokeColor=#82b366;" parent="1" vertex="1">
          <mxGeometry x="832" y="480" width="32" height="32" as="geometry" />
        </mxCell>
        <mxCell id="0n1FAbPSxEFtD7gWZ69O-1" value="&lt;b&gt;+&lt;/b&gt;" style="text;html=1;align=center;verticalAlign=middle;resizable=0;points=[];autosize=1;strokeColor=none;fillColor=none;fontSize=16;strokeWidth=0;gradientColor=default;shadow=0;rounded=0;glass=0;imageWidth=18;imageHeight=18;" parent="1" vertex="1">
          <mxGeometry x="96" y="476" width="32" height="40" as="geometry" />
        </mxCell>
        <mxCell id="0n1FAbPSxEFtD7gWZ69O-5" value="&lt;b&gt;+&lt;/b&gt;" style="text;html=1;align=center;verticalAlign=middle;resizable=0;points=[];autosize=1;strokeColor=none;fillColor=none;fontSize=16;strokeWidth=0;gradientColor=default;shadow=0;rounded=0;glass=0;imageWidth=18;imageHeight=18;" parent="1" vertex="1">
          <mxGeometry x="736" y="476" width="32" height="40" as="geometry" />
        </mxCell>
        <mxCell id="0n1FAbPSxEFtD7gWZ69O-6" value="&lt;b&gt;+&lt;/b&gt;" style="text;html=1;align=center;verticalAlign=middle;resizable=0;points=[];autosize=1;strokeColor=none;fillColor=none;fontSize=16;strokeWidth=0;gradientColor=default;shadow=0;rounded=0;glass=0;imageWidth=18;imageHeight=18;" parent="1" vertex="1">
          <mxGeometry x="672" y="476" width="32" height="40" as="geometry" />
        </mxCell>
        <mxCell id="0n1FAbPSxEFtD7gWZ69O-7" value="&lt;b&gt;+&lt;/b&gt;" style="text;html=1;align=center;verticalAlign=middle;resizable=0;points=[];autosize=1;strokeColor=none;fillColor=none;fontSize=16;strokeWidth=0;gradientColor=default;shadow=0;rounded=0;glass=0;imageWidth=18;imageHeight=18;" parent="1" vertex="1">
          <mxGeometry x="608" y="476" width="32" height="40" as="geometry" />
        </mxCell>
        <mxCell id="0n1FAbPSxEFtD7gWZ69O-8" value="&lt;b&gt;+&lt;/b&gt;" style="text;html=1;align=center;verticalAlign=middle;resizable=0;points=[];autosize=1;strokeColor=none;fillColor=none;fontSize=16;strokeWidth=0;gradientColor=default;shadow=0;rounded=0;glass=0;imageWidth=18;imageHeight=18;" parent="1" vertex="1">
          <mxGeometry x="544" y="476" width="32" height="40" as="geometry" />
        </mxCell>
        <mxCell id="0n1FAbPSxEFtD7gWZ69O-9" value="&lt;b&gt;+&lt;/b&gt;" style="text;html=1;align=center;verticalAlign=middle;resizable=0;points=[];autosize=1;strokeColor=none;fillColor=none;fontSize=16;strokeWidth=0;gradientColor=default;shadow=0;rounded=0;glass=0;imageWidth=18;imageHeight=18;" parent="1" vertex="1">
          <mxGeometry x="480" y="476" width="32" height="40" as="geometry" />
        </mxCell>
        <mxCell id="0n1FAbPSxEFtD7gWZ69O-10" value="&lt;b&gt;+&lt;/b&gt;" style="text;html=1;align=center;verticalAlign=middle;resizable=0;points=[];autosize=1;strokeColor=none;fillColor=none;fontSize=16;strokeWidth=0;gradientColor=default;shadow=0;rounded=0;glass=0;imageWidth=18;imageHeight=18;" parent="1" vertex="1">
          <mxGeometry x="416" y="476" width="32" height="40" as="geometry" />
        </mxCell>
        <mxCell id="0n1FAbPSxEFtD7gWZ69O-11" value="&lt;b&gt;+&lt;/b&gt;" style="text;html=1;align=center;verticalAlign=middle;resizable=0;points=[];autosize=1;strokeColor=none;fillColor=none;fontSize=16;strokeWidth=0;gradientColor=default;shadow=0;rounded=0;glass=0;imageWidth=18;imageHeight=18;" parent="1" vertex="1">
          <mxGeometry x="352" y="476" width="32" height="40" as="geometry" />
        </mxCell>
        <mxCell id="0n1FAbPSxEFtD7gWZ69O-12" value="&lt;b&gt;+&lt;/b&gt;" style="text;html=1;align=center;verticalAlign=middle;resizable=0;points=[];autosize=1;strokeColor=none;fillColor=none;fontSize=16;strokeWidth=0;gradientColor=default;shadow=0;rounded=0;glass=0;imageWidth=18;imageHeight=18;" parent="1" vertex="1">
          <mxGeometry x="288" y="476" width="32" height="40" as="geometry" />
        </mxCell>
        <mxCell id="0n1FAbPSxEFtD7gWZ69O-13" value="&lt;b&gt;+&lt;/b&gt;" style="text;html=1;align=center;verticalAlign=middle;resizable=0;points=[];autosize=1;strokeColor=none;fillColor=none;fontSize=16;strokeWidth=0;gradientColor=default;shadow=0;rounded=0;glass=0;imageWidth=18;imageHeight=18;" parent="1" vertex="1">
          <mxGeometry x="224" y="476" width="32" height="40" as="geometry" />
        </mxCell>
        <mxCell id="0n1FAbPSxEFtD7gWZ69O-14" value="&lt;b&gt;+&lt;/b&gt;" style="text;html=1;align=center;verticalAlign=middle;resizable=0;points=[];autosize=1;strokeColor=none;fillColor=none;fontSize=16;strokeWidth=0;gradientColor=default;shadow=0;rounded=0;glass=0;imageWidth=18;imageHeight=18;" parent="1" vertex="1">
          <mxGeometry x="160" y="476" width="32" height="40" as="geometry" />
        </mxCell>
        <mxCell id="0n1FAbPSxEFtD7gWZ69O-15" value="&lt;b&gt;+&lt;/b&gt;" style="text;html=1;align=center;verticalAlign=middle;resizable=0;points=[];autosize=1;strokeColor=none;fillColor=none;fontSize=16;strokeWidth=0;gradientColor=default;shadow=0;rounded=0;glass=0;imageWidth=18;imageHeight=18;" parent="1" vertex="1">
          <mxGeometry x="800" y="476" width="32" height="40" as="geometry" />
        </mxCell>
      </root>
    </mxGraphModel>
  </diagram>
</mxfile>
